STARTFONT 2.1
COMMENT Originally a BSD vfont.
FONT Holdouble-36
SIZE 36 72 72
FONTBOUNDINGBOX 32 36 0 -10
STARTPROPERTIES 7
FONT_ASCENT 26
FONT_DESCENT 10
DEFAULT_CHAR 0
RESOLUTION 72
POINT_SIZE 360
FONT "Holdouble"
_XMBDFED_INFO "Edited with xmbdfed 4.4."
ENDPROPERTIES
CHARS 256
STARTCHAR <unknown>
ENCODING 0
SWIDTH 0 0
DWIDTH 0 0
BBX 0 0 0 0
BITMAP
ENDCHAR
STARTCHAR <unknown>
ENCODING 1
SWIDTH 833 0
DWIDTH 30 0
BBX 0 0 0 0
BITMAP
ENDCHAR
STARTCHAR <unknown>
ENCODING 2
SWIDTH 833 0
DWIDTH 30 0
BBX 0 0 0 0
BITMAP
ENDCHAR
STARTCHAR <unknown>
ENCODING 3
SWIDTH 833 0
DWIDTH 30 0
BBX 0 0 0 0
BITMAP
ENDCHAR
STARTCHAR <unknown>
ENCODING 4
SWIDTH 833 0
DWIDTH 30 0
BBX 0 0 0 0
BITMAP
ENDCHAR
STARTCHAR <unknown>
ENCODING 5
SWIDTH 666 0
DWIDTH 24 0
BBX 0 0 0 0
BITMAP
ENDCHAR
STARTCHAR <unknown>
ENCODING 6
SWIDTH 555 0
DWIDTH 20 0
BBX 0 0 0 0
BITMAP
ENDCHAR
STARTCHAR <unknown>
ENCODING 7
SWIDTH 500 0
DWIDTH 18 0
BBX 0 0 0 0
BITMAP
ENDCHAR
STARTCHAR <unknown>
ENCODING 8
SWIDTH 833 0
DWIDTH 30 0
BBX 0 0 0 0
BITMAP
ENDCHAR
STARTCHAR <unknown>
ENCODING 9
SWIDTH 500 0
DWIDTH 18 0
BBX 0 0 0 0
BITMAP
ENDCHAR
STARTCHAR <unknown>
ENCODING 10
SWIDTH 833 0
DWIDTH 30 0
BBX 0 0 0 0
BITMAP
ENDCHAR
STARTCHAR <unknown>
ENCODING 11
SWIDTH 500 0
DWIDTH 18 0
BBX 0 0 0 0
BITMAP
ENDCHAR
STARTCHAR <unknown>
ENCODING 12
SWIDTH 611 0
DWIDTH 22 0
BBX 0 0 0 0
BITMAP
ENDCHAR
STARTCHAR <unknown>
ENCODING 13
SWIDTH 833 0
DWIDTH 30 0
BBX 0 0 0 0
BITMAP
ENDCHAR
STARTCHAR <unknown>
ENCODING 14
SWIDTH 500 0
DWIDTH 18 0
BBX 0 0 0 0
BITMAP
ENDCHAR
STARTCHAR <unknown>
ENCODING 15
SWIDTH 500 0
DWIDTH 18 0
BBX 0 0 0 0
BITMAP
ENDCHAR
STARTCHAR <unknown>
ENCODING 16
SWIDTH 833 0
DWIDTH 30 0
BBX 0 0 0 0
BITMAP
ENDCHAR
STARTCHAR <unknown>
ENCODING 17
SWIDTH 555 0
DWIDTH 20 0
BBX 0 0 0 0
BITMAP
ENDCHAR
STARTCHAR <unknown>
ENCODING 18
SWIDTH 555 0
DWIDTH 20 0
BBX 0 0 0 0
BITMAP
ENDCHAR
STARTCHAR <unknown>
ENCODING 19
SWIDTH 833 0
DWIDTH 30 0
BBX 0 0 0 0
BITMAP
ENDCHAR
STARTCHAR <unknown>
ENCODING 20
SWIDTH 611 0
DWIDTH 22 0
BBX 0 0 0 0
BITMAP
ENDCHAR
STARTCHAR <unknown>
ENCODING 21
SWIDTH 666 0
DWIDTH 24 0
BBX 0 0 0 0
BITMAP
ENDCHAR
STARTCHAR <unknown>
ENCODING 22
SWIDTH 666 0
DWIDTH 24 0
BBX 0 0 0 0
BITMAP
ENDCHAR
STARTCHAR <unknown>
ENCODING 23
SWIDTH 0 0
DWIDTH 0 0
BBX 0 0 0 0
BITMAP
ENDCHAR
STARTCHAR <unknown>
ENCODING 24
SWIDTH 666 0
DWIDTH 24 0
BBX 0 0 0 0
BITMAP
ENDCHAR
STARTCHAR <unknown>
ENCODING 25
SWIDTH 555 0
DWIDTH 20 0
BBX 0 0 0 0
BITMAP
ENDCHAR
STARTCHAR <unknown>
ENCODING 26
SWIDTH 0 0
DWIDTH 0 0
BBX 0 0 0 0
BITMAP
ENDCHAR
STARTCHAR <unknown>
ENCODING 27
SWIDTH 0 0
DWIDTH 0 0
BBX 0 0 0 0
BITMAP
ENDCHAR
STARTCHAR <unknown>
ENCODING 28
SWIDTH 0 0
DWIDTH 0 0
BBX 0 0 0 0
BITMAP
ENDCHAR
STARTCHAR <unknown>
ENCODING 29
SWIDTH 0 0
DWIDTH 0 0
BBX 0 0 0 0
BITMAP
ENDCHAR
STARTCHAR <unknown>
ENCODING 30
SWIDTH 0 0
DWIDTH 0 0
BBX 0 0 0 0
BITMAP
ENDCHAR
STARTCHAR <unknown>
ENCODING 31
SWIDTH 0 0
DWIDTH 0 0
BBX 0 0 0 0
BITMAP
ENDCHAR
STARTCHAR <unknown>
ENCODING 32
SWIDTH 500 0
DWIDTH 18 0
BBX 0 0 0 0
BITMAP
ENDCHAR
STARTCHAR <unknown>
ENCODING 33
SWIDTH 500 0
DWIDTH 18 0
BBX 6 24 6 0
BITMAP
30
30
FC
FC
FC
FC
FC
FC
FC
FC
30
30
30
30
30
30
00
00
00
00
30
30
30
30
ENDCHAR
STARTCHAR <unknown>
ENCODING 34
SWIDTH 500 0
DWIDTH 18 0
BBX 8 8 6 16
BITMAP
C3
C3
C3
C3
C3
C3
C3
C3
ENDCHAR
STARTCHAR <unknown>
ENCODING 35
SWIDTH 500 0
DWIDTH 18 0
BBX 16 22 2 0
BITMAP
030C
030C
030C
030C
030C
030C
3FFF
3FFF
0C30
0C30
0C30
0C30
0C30
0C30
FFFC
FFFC
30C0
30C0
30C0
30C0
30C0
30C0
ENDCHAR
STARTCHAR <unknown>
ENCODING 36
SWIDTH 500 0
DWIDTH 18 0
BBX 14 28 2 -4
BITMAP
0300
0300
0300
0300
3FCC
3FCC
C03C
C03C
C00C
C00C
3000
3000
0F00
0F00
00F0
00F0
000C
000C
C00C
C00C
F00C
F00C
CFF0
CFF0
0300
0300
0300
0300
ENDCHAR
STARTCHAR <unknown>
ENCODING 37
SWIDTH 500 0
DWIDTH 18 0
BBX 14 22 2 0
BITMAP
3C00
3C00
C300
C300
C30C
C30C
C330
C330
3CC0
3CC0
0300
0300
0CF0
0CF0
330C
330C
C30C
C30C
030C
030C
00F0
00F0
ENDCHAR
STARTCHAR <unknown>
ENCODING 38
SWIDTH 500 0
DWIDTH 18 0
BBX 16 22 2 0
BITMAP
0F00
0F00
30C0
30C0
3000
3000
3000
3000
0C00
0C00
330C
330C
C0F0
C0F0
C030
C030
C030
C030
C0CC
C0CC
3F0F
3F0F
ENDCHAR
STARTCHAR <unknown>
ENCODING 39
SWIDTH 500 0
DWIDTH 18 0
BBX 6 8 6 16
BITMAP
0C
0C
0C
0C
30
30
C0
C0
ENDCHAR
STARTCHAR <unknown>
ENCODING 40
SWIDTH 500 0
DWIDTH 18 0
BBX 8 28 6 -4
BITMAP
03
03
0C
0C
30
30
30
30
C0
C0
C0
C0
C0
C0
C0
C0
C0
C0
C0
C0
30
30
30
30
0C
0C
03
03
ENDCHAR
STARTCHAR <unknown>
ENCODING 41
SWIDTH 500 0
DWIDTH 18 0
BBX 8 28 6 -4
BITMAP
C0
C0
30
30
0C
0C
0C
0C
03
03
03
03
03
03
03
03
03
03
03
03
0C
0C
0C
0C
30
30
C0
C0
ENDCHAR
STARTCHAR <unknown>
ENCODING 42
SWIDTH 500 0
DWIDTH 18 0
BBX 14 14 2 6
BITMAP
0300
0300
0300
0300
CFCC
CFCC
3FF0
3FF0
0FC0
0FC0
0CC0
0CC0
3030
3030
ENDCHAR
STARTCHAR <unknown>
ENCODING 43
SWIDTH 500 0
DWIDTH 18 0
BBX 14 14 2 4
BITMAP
0300
0300
0300
0300
0300
0300
FFFC
FFFC
0300
0300
0300
0300
0300
0300
ENDCHAR
STARTCHAR <unknown>
ENCODING 44
SWIDTH 500 0
DWIDTH 18 0
BBX 6 10 6 -6
BITMAP
3C
3C
3C
3C
0C
0C
30
30
C0
C0
ENDCHAR
STARTCHAR <unknown>
ENCODING 45
SWIDTH 500 0
DWIDTH 18 0
BBX 14 2 2 10
BITMAP
FFFC
FFFC
ENDCHAR
STARTCHAR <unknown>
ENCODING 46
SWIDTH 500 0
DWIDTH 18 0
BBX 4 4 8 0
BITMAP
F0
F0
F0
F0
ENDCHAR
STARTCHAR <unknown>
ENCODING 47
SWIDTH 500 0
DWIDTH 18 0
BBX 14 26 2 -2
BITMAP
000C
000C
0030
0030
0030
0030
00C0
00C0
00C0
00C0
0300
0300
0300
0300
0C00
0C00
0C00
0C00
3000
3000
3000
3000
C000
C000
C000
C000
ENDCHAR
STARTCHAR <unknown>
ENCODING 48
SWIDTH 500 0
DWIDTH 18 0
BBX 12 22 4 0
BITMAP
3FC0
3FC0
C030
C030
C030
C030
C030
C030
C030
C030
C030
C030
C030
C030
C030
C030
C030
C030
C030
C030
3FC0
3FC0
ENDCHAR
STARTCHAR <unknown>
ENCODING 49
SWIDTH 500 0
DWIDTH 18 0
BBX 10 22 4 0
BITMAP
0C00
0C00
3C00
3C00
CC00
CC00
0C00
0C00
0C00
0C00
0C00
0C00
0C00
0C00
0C00
0C00
0C00
0C00
0C00
0C00
FFC0
FFC0
ENDCHAR
STARTCHAR <unknown>
ENCODING 50
SWIDTH 500 0
DWIDTH 18 0
BBX 14 22 2 0
BITMAP
0FF0
0FF0
303C
303C
C00C
C00C
C00C
C00C
0030
0030
00C0
00C0
0300
0300
0C00
0C00
3000
3000
C00C
C00C
FFFC
FFFC
ENDCHAR
STARTCHAR <unknown>
ENCODING 51
SWIDTH 500 0
DWIDTH 18 0
BBX 14 22 2 0
BITMAP
0FF0
0FF0
303C
303C
300C
300C
000C
000C
0030
0030
03F0
03F0
003C
003C
000C
000C
C00C
C00C
F030
F030
3FC0
3FC0
ENDCHAR
STARTCHAR <unknown>
ENCODING 52
SWIDTH 500 0
DWIDTH 18 0
BBX 14 24 2 0
BITMAP
00C0
00C0
0300
0300
0300
0300
0C30
0C30
0C30
0C30
3030
3030
3030
3030
C030
C030
FFFC
FFFC
0030
0030
0030
0030
0030
0030
ENDCHAR
STARTCHAR <unknown>
ENCODING 53
SWIDTH 500 0
DWIDTH 18 0
BBX 14 22 2 0
BITMAP
3FFC
3FFC
3000
3000
3000
3000
3000
3000
3FF0
3FF0
003C
003C
000C
000C
000C
000C
C00C
C00C
F030
F030
3FC0
3FC0
ENDCHAR
STARTCHAR <unknown>
ENCODING 54
SWIDTH 500 0
DWIDTH 18 0
BBX 14 24 2 0
BITMAP
00F0
00F0
0F00
0F00
3000
3000
3000
3000
C000
C000
CFF0
CFF0
F03C
F03C
C00C
C00C
C00C
C00C
C00C
C00C
F030
F030
3FC0
3FC0
ENDCHAR
STARTCHAR <unknown>
ENCODING 55
SWIDTH 500 0
DWIDTH 18 0
BBX 14 22 2 0
BITMAP
FFFC
FFFC
C03C
C03C
C030
C030
0030
0030
00C0
00C0
00C0
00C0
00C0
00C0
0300
0300
0300
0300
0300
0300
0300
0300
ENDCHAR
STARTCHAR <unknown>
ENCODING 56
SWIDTH 500 0
DWIDTH 18 0
BBX 14 22 2 0
BITMAP
0FC0
0FC0
30F0
30F0
C030
C030
C030
C030
F0C0
F0C0
3FF0
3FF0
303C
303C
C00C
C00C
C00C
C00C
F030
F030
3FC0
3FC0
ENDCHAR
STARTCHAR <unknown>
ENCODING 57
SWIDTH 500 0
DWIDTH 18 0
BBX 14 24 2 -2
BITMAP
0FF0
0FF0
303C
303C
C00C
C00C
C00C
C00C
C00C
C00C
F03C
F03C
3FCC
3FCC
000C
000C
0030
0030
0030
0030
03C0
03C0
3C00
3C00
ENDCHAR
STARTCHAR <unknown>
ENCODING 58
SWIDTH 500 0
DWIDTH 18 0
BBX 4 16 8 0
BITMAP
F0
F0
F0
F0
00
00
00
00
00
00
00
00
F0
F0
F0
F0
ENDCHAR
STARTCHAR <unknown>
ENCODING 59
SWIDTH 500 0
DWIDTH 18 0
BBX 6 22 6 -6
BITMAP
3C
3C
3C
3C
00
00
00
00
00
00
00
00
3C
3C
3C
3C
0C
0C
30
30
C0
C0
ENDCHAR
STARTCHAR <unknown>
ENCODING 60
SWIDTH 500 0
DWIDTH 18 0
BBX 12 22 4 0
BITMAP
0030
0030
00C0
00C0
0300
0300
0C00
0C00
3000
3000
C000
C000
3000
3000
0C00
0C00
0300
0300
00C0
00C0
0030
0030
ENDCHAR
STARTCHAR <unknown>
ENCODING 61
SWIDTH 500 0
DWIDTH 18 0
BBX 14 6 2 8
BITMAP
FFFC
FFFC
0000
0000
FFFC
FFFC
ENDCHAR
STARTCHAR <unknown>
ENCODING 62
SWIDTH 500 0
DWIDTH 18 0
BBX 12 22 4 0
BITMAP
C000
C000
3000
3000
0C00
0C00
0300
0300
00C0
00C0
0030
0030
00C0
00C0
0300
0300
0C00
0C00
3000
3000
C000
C000
ENDCHAR
STARTCHAR <unknown>
ENCODING 63
SWIDTH 500 0
DWIDTH 18 0
BBX 14 24 2 0
BITMAP
0FF0
0FF0
303C
303C
C00C
C00C
C00C
C00C
0030
0030
00C0
00C0
0300
0300
0300
0300
0000
0000
0000
0000
0300
0300
0300
0300
ENDCHAR
STARTCHAR <unknown>
ENCODING 64
SWIDTH 500 0
DWIDTH 18 0
BBX 16 22 2 0
BITMAP
03C0
03C0
3C30
3C30
300C
300C
C0FC
C0FC
C30C
C30C
C30C
C30C
C0F0
C0F0
C000
C000
3003
3003
3C0C
3C0C
03F0
03F0
ENDCHAR
STARTCHAR <unknown>
ENCODING 65
SWIDTH 500 0
DWIDTH 18 0
BBX 18 24 0 0
BITMAP
00C000
00C000
00C000
00C000
033000
033000
033000
033000
033000
033000
0C0C00
0C0C00
0C0C00
0C0C00
0C0C00
0C0C00
3FFF00
3FFF00
300300
300300
300300
300300
FC0FC0
FC0FC0
ENDCHAR
STARTCHAR <unknown>
ENCODING 66
SWIDTH 500 0
DWIDTH 18 0
BBX 14 24 2 0
BITMAP
FFC0
FFC0
3030
3030
3030
3030
3030
3030
30F0
30F0
3FC0
3FC0
3030
3030
300C
300C
300C
300C
300C
300C
303C
303C
FFF0
FFF0
ENDCHAR
STARTCHAR <unknown>
ENCODING 67
SWIDTH 500 0
DWIDTH 18 0
BBX 14 24 2 0
BITMAP
0FCC
0FCC
303C
303C
C00C
C00C
C000
C000
C000
C000
C000
C000
C000
C000
C000
C000
C00C
C00C
C00C
C00C
F030
F030
3FC0
3FC0
ENDCHAR
STARTCHAR <unknown>
ENCODING 68
SWIDTH 500 0
DWIDTH 18 0
BBX 14 24 2 0
BITMAP
FFF0
FFF0
303C
303C
300C
300C
300C
300C
300C
300C
300C
300C
300C
300C
300C
300C
300C
300C
300C
300C
3030
3030
FFC0
FFC0
ENDCHAR
STARTCHAR <unknown>
ENCODING 69
SWIDTH 500 0
DWIDTH 18 0
BBX 14 24 2 0
BITMAP
FFFC
FFFC
300C
300C
3000
3000
3000
3000
3000
3000
3FF0
3FF0
3000
3000
3000
3000
3000
3000
3000
3000
300C
300C
FFFC
FFFC
ENDCHAR
STARTCHAR <unknown>
ENCODING 70
SWIDTH 500 0
DWIDTH 18 0
BBX 14 24 2 0
BITMAP
FFFC
FFFC
300C
300C
3000
3000
3000
3000
3000
3000
3FF0
3FF0
3000
3000
3000
3000
3000
3000
3000
3000
3000
3000
FC00
FC00
ENDCHAR
STARTCHAR <unknown>
ENCODING 71
SWIDTH 500 0
DWIDTH 18 0
BBX 16 24 2 0
BITMAP
0FCC
0FCC
303C
303C
C00C
C00C
C000
C000
C000
C000
C000
C000
C000
C000
C03F
C03F
C00C
C00C
C00C
C00C
F03C
F03C
3FCC
3FCC
ENDCHAR
STARTCHAR <unknown>
ENCODING 72
SWIDTH 500 0
DWIDTH 18 0
BBX 16 24 2 0
BITMAP
FC3F
FC3F
300C
300C
300C
300C
300C
300C
300C
300C
3FFC
3FFC
300C
300C
300C
300C
300C
300C
300C
300C
300C
300C
FC3F
FC3F
ENDCHAR
STARTCHAR <unknown>
ENCODING 73
SWIDTH 500 0
DWIDTH 18 0
BBX 10 24 4 0
BITMAP
FFC0
FFC0
0C00
0C00
0C00
0C00
0C00
0C00
0C00
0C00
0C00
0C00
0C00
0C00
0C00
0C00
0C00
0C00
0C00
0C00
0C00
0C00
FFC0
FFC0
ENDCHAR
STARTCHAR <unknown>
ENCODING 74
SWIDTH 500 0
DWIDTH 18 0
BBX 16 24 2 0
BITMAP
03FF
03FF
0030
0030
0030
0030
0030
0030
0030
0030
0030
0030
0030
0030
0030
0030
0030
0030
C030
C030
F0F0
F0F0
3FC0
3FC0
ENDCHAR
STARTCHAR <unknown>
ENCODING 75
SWIDTH 500 0
DWIDTH 18 0
BBX 16 24 2 0
BITMAP
FC0F
FC0F
300C
300C
3030
3030
30C0
30C0
3300
3300
3CC0
3CC0
30C0
30C0
3030
3030
3030
3030
300C
300C
300C
300C
FC3F
FC3F
ENDCHAR
STARTCHAR <unknown>
ENCODING 76
SWIDTH 500 0
DWIDTH 18 0
BBX 14 24 2 0
BITMAP
FC00
FC00
3000
3000
3000
3000
3000
3000
3000
3000
3000
3000
3000
3000
3000
3000
3000
3000
3000
3000
300C
300C
FFFC
FFFC
ENDCHAR
STARTCHAR <unknown>
ENCODING 77
SWIDTH 500 0
DWIDTH 18 0
BBX 18 24 0 0
BITMAP
F003C0
F003C0
300300
300300
3C0F00
3C0F00
3C0F00
3C0F00
333300
333300
333300
333300
30C300
30C300
30C300
30C300
300300
300300
300300
300300
300300
300300
FC0FC0
FC0FC0
ENDCHAR
STARTCHAR <unknown>
ENCODING 78
SWIDTH 500 0
DWIDTH 18 0
BBX 16 24 2 0
BITMAP
F03F
F03F
300C
300C
3C0C
3C0C
3C0C
3C0C
330C
330C
330C
330C
30CC
30CC
30CC
30CC
303C
303C
303C
303C
300C
300C
FC0C
FC0C
ENDCHAR
STARTCHAR <unknown>
ENCODING 79
SWIDTH 500 0
DWIDTH 18 0
BBX 14 24 2 0
BITMAP
0FF0
0FF0
303C
303C
C00C
C00C
C00C
C00C
C00C
C00C
C00C
C00C
C00C
C00C
C00C
C00C
C00C
C00C
C00C
C00C
F030
F030
3FC0
3FC0
ENDCHAR
STARTCHAR <unknown>
ENCODING 80
SWIDTH 500 0
DWIDTH 18 0
BBX 14 24 2 0
BITMAP
FFF0
FFF0
303C
303C
300C
300C
300C
300C
300C
300C
3030
3030
33C0
33C0
3000
3000
3000
3000
3000
3000
3000
3000
FC00
FC00
ENDCHAR
STARTCHAR <unknown>
ENCODING 81
SWIDTH 500 0
DWIDTH 18 0
BBX 14 32 2 -8
BITMAP
0FF0
0FF0
303C
303C
C00C
C00C
C00C
C00C
C00C
C00C
C00C
C00C
C00C
C00C
C00C
C00C
C00C
C00C
C00C
C00C
F030
F030
3FC0
3FC0
0F00
0F00
0300
0300
00C0
00C0
003C
003C
ENDCHAR
STARTCHAR <unknown>
ENCODING 82
SWIDTH 500 0
DWIDTH 18 0
BBX 16 24 2 0
BITMAP
FFF0
FFF0
303C
303C
300C
300C
300C
300C
300C
300C
3030
3030
3FC0
3FC0
3030
3030
3030
3030
300C
300C
300C
300C
FC3F
FC3F
ENDCHAR
STARTCHAR <unknown>
ENCODING 83
SWIDTH 500 0
DWIDTH 18 0
BBX 14 24 2 0
BITMAP
3FCC
3FCC
F03C
F03C
C00C
C00C
C000
C000
F000
F000
3F00
3F00
03F0
03F0
003C
003C
000C
000C
C00C
C00C
F03C
F03C
CFF0
CFF0
ENDCHAR
STARTCHAR <unknown>
ENCODING 84
SWIDTH 500 0
DWIDTH 18 0
BBX 18 24 0 0
BITMAP
FFFFC0
FFFFC0
C0C0C0
C0C0C0
00C000
00C000
00C000
00C000
00C000
00C000
00C000
00C000
00C000
00C000
00C000
00C000
00C000
00C000
00C000
00C000
00C000
00C000
0FFC00
0FFC00
ENDCHAR
STARTCHAR <unknown>
ENCODING 85
SWIDTH 500 0
DWIDTH 18 0
BBX 16 24 2 0
BITMAP
FC3F
FC3F
300C
300C
300C
300C
300C
300C
300C
300C
300C
300C
300C
300C
300C
300C
300C
300C
300C
300C
3C30
3C30
0FC0
0FC0
ENDCHAR
STARTCHAR <unknown>
ENCODING 86
SWIDTH 500 0
DWIDTH 18 0
BBX 18 24 0 0
BITMAP
FC0FC0
FC0FC0
300300
300300
300300
300300
0C0C00
0C0C00
0C0C00
0C0C00
0C0C00
0C0C00
033000
033000
033000
033000
033000
033000
00C000
00C000
00C000
00C000
00C000
00C000
ENDCHAR
STARTCHAR <unknown>
ENCODING 87
SWIDTH 500 0
DWIDTH 18 0
BBX 18 24 0 0
BITMAP
FC0FC0
FC0FC0
300300
300300
30C300
30C300
30C300
30C300
30C300
30C300
333300
333300
333300
333300
0F3C00
0F3C00
0C0C00
0C0C00
0C0C00
0C0C00
0C0C00
0C0C00
0C0C00
0C0C00
ENDCHAR
STARTCHAR <unknown>
ENCODING 88
SWIDTH 500 0
DWIDTH 18 0
BBX 16 24 2 0
BITMAP
FC3F
FC3F
300C
300C
300C
300C
0C30
0C30
0C30
0C30
03C0
03C0
03C0
03C0
0C30
0C30
0C30
0C30
300C
300C
300C
300C
FC3F
FC3F
ENDCHAR
STARTCHAR <unknown>
ENCODING 89
SWIDTH 500 0
DWIDTH 18 0
BBX 18 24 0 0
BITMAP
FC0FC0
FC0FC0
300300
300300
0C0C00
0C0C00
0C0C00
0C0C00
033000
033000
033000
033000
00C000
00C000
00C000
00C000
00C000
00C000
00C000
00C000
00C000
00C000
03F000
03F000
ENDCHAR
STARTCHAR <unknown>
ENCODING 90
SWIDTH 500 0
DWIDTH 18 0
BBX 14 24 2 0
BITMAP
FFFC
FFFC
C030
C030
C030
C030
00C0
00C0
00C0
00C0
0300
0300
0300
0300
0C00
0C00
0C00
0C00
300C
300C
300C
300C
FFFC
FFFC
ENDCHAR
STARTCHAR <unknown>
ENCODING 91
SWIDTH 500 0
DWIDTH 18 0
BBX 8 28 6 -4
BITMAP
FF
FF
C0
C0
C0
C0
C0
C0
C0
C0
C0
C0
C0
C0
C0
C0
C0
C0
C0
C0
C0
C0
C0
C0
C0
C0
FF
FF
ENDCHAR
STARTCHAR <unknown>
ENCODING 92
SWIDTH 500 0
DWIDTH 18 0
BBX 14 26 2 -2
BITMAP
C000
C000
3000
3000
3000
3000
0C00
0C00
0C00
0C00
0300
0300
0300
0300
00C0
00C0
00C0
00C0
0030
0030
0030
0030
000C
000C
000C
000C
ENDCHAR
STARTCHAR <unknown>
ENCODING 93
SWIDTH 500 0
DWIDTH 18 0
BBX 8 28 4 -4
BITMAP
FF
FF
03
03
03
03
03
03
03
03
03
03
03
03
03
03
03
03
03
03
03
03
03
03
03
03
FF
FF
ENDCHAR
STARTCHAR <unknown>
ENCODING 94
SWIDTH 500 0
DWIDTH 18 0
BBX 14 8 2 14
BITMAP
0300
0300
0CC0
0CC0
3030
3030
C00C
C00C
ENDCHAR
STARTCHAR <unknown>
ENCODING 95
SWIDTH 500 0
DWIDTH 18 0
BBX 16 2 2 -2
BITMAP
FFFF
FFFF
ENDCHAR
STARTCHAR <unknown>
ENCODING 96
SWIDTH 500 0
DWIDTH 18 0
BBX 6 8 6 16
BITMAP
C0
C0
C0
C0
30
30
0C
0C
ENDCHAR
STARTCHAR <unknown>
ENCODING 97
SWIDTH 500 0
DWIDTH 18 0
BBX 14 16 2 0
BITMAP
0FC0
0FC0
30F0
30F0
0030
0030
0FF0
0FF0
3030
3030
C030
C030
F0F0
F0F0
3F3C
3F3C
ENDCHAR
STARTCHAR <unknown>
ENCODING 98
SWIDTH 500 0
DWIDTH 18 0
BBX 14 24 2 0
BITMAP
F000
F000
3000
3000
3000
3000
3000
3000
33F0
33F0
3C3C
3C3C
300C
300C
300C
300C
300C
300C
300C
300C
3C30
3C30
33C0
33C0
ENDCHAR
STARTCHAR <unknown>
ENCODING 99
SWIDTH 500 0
DWIDTH 18 0
BBX 14 16 2 0
BITMAP
0FCC
0FCC
303C
303C
C00C
C00C
C000
C000
C000
C000
C00C
C00C
F030
F030
3FC0
3FC0
ENDCHAR
STARTCHAR <unknown>
ENCODING 100
SWIDTH 500 0
DWIDTH 18 0
BBX 14 24 2 0
BITMAP
00F0
00F0
0030
0030
0030
0030
0030
0030
0F30
0F30
30F0
30F0
C030
C030
C030
C030
C030
C030
C030
C030
F0F0
F0F0
3F3C
3F3C
ENDCHAR
STARTCHAR <unknown>
ENCODING 101
SWIDTH 500 0
DWIDTH 18 0
BBX 14 16 2 0
BITMAP
0FF0
0FF0
303C
303C
C00C
C00C
FFF0
FFF0
C000
C000
C00C
C00C
F030
F030
3FC0
3FC0
ENDCHAR
STARTCHAR <unknown>
ENCODING 102
SWIDTH 500 0
DWIDTH 18 0
BBX 16 24 2 0
BITMAP
03FC
03FC
0F03
0F03
0C00
0C00
0C00
0C00
FFF0
FFF0
0C00
0C00
0C00
0C00
0C00
0C00
0C00
0C00
0C00
0C00
0C00
0C00
FFC0
FFC0
ENDCHAR
STARTCHAR <unknown>
ENCODING 103
SWIDTH 500 0
DWIDTH 18 0
BBX 16 24 2 -8
BITMAP
0FF3
0FF3
3C0F
3C0F
300C
300C
303C
303C
3FF0
3FF0
F000
F000
C000
C000
3FFC
3FFC
F003
F003
C003
C003
C00F
C00F
3FFC
3FFC
ENDCHAR
STARTCHAR <unknown>
ENCODING 104
SWIDTH 500 0
DWIDTH 18 0
BBX 16 24 2 0
BITMAP
F000
F000
3000
3000
3000
3000
3000
3000
33F0
33F0
3C3C
3C3C
300C
300C
300C
300C
300C
300C
300C
300C
300C
300C
FC3F
FC3F
ENDCHAR
STARTCHAR <unknown>
ENCODING 105
SWIDTH 500 0
DWIDTH 18 0
BBX 10 24 4 0
BITMAP
0C00
0C00
0C00
0C00
0000
0000
0000
0000
FC00
FC00
0C00
0C00
0C00
0C00
0C00
0C00
0C00
0C00
0C00
0C00
0C00
0C00
FFC0
FFC0
ENDCHAR
STARTCHAR <unknown>
ENCODING 106
SWIDTH 500 0
DWIDTH 18 0
BBX 10 32 2 -8
BITMAP
00C0
00C0
00C0
00C0
0000
0000
0000
0000
0FC0
0FC0
00C0
00C0
00C0
00C0
00C0
00C0
00C0
00C0
00C0
00C0
00C0
00C0
00C0
00C0
00C0
00C0
C0C0
C0C0
F0C0
F0C0
3F00
3F00
ENDCHAR
STARTCHAR <unknown>
ENCODING 107
SWIDTH 500 0
DWIDTH 18 0
BBX 16 24 2 0
BITMAP
F000
F000
3000
3000
3000
3000
3000
3000
303C
303C
3030
3030
30C0
30C0
3300
3300
3CC0
3CC0
3030
3030
300C
300C
FC3F
FC3F
ENDCHAR
STARTCHAR <unknown>
ENCODING 108
SWIDTH 500 0
DWIDTH 18 0
BBX 10 24 4 0
BITMAP
FC00
FC00
0C00
0C00
0C00
0C00
0C00
0C00
0C00
0C00
0C00
0C00
0C00
0C00
0C00
0C00
0C00
0C00
0C00
0C00
0C00
0C00
FFC0
FFC0
ENDCHAR
STARTCHAR <unknown>
ENCODING 109
SWIDTH 500 0
DWIDTH 18 0
BBX 18 16 0 0
BITMAP
C30C00
C30C00
3CF300
3CF300
30C300
30C300
30C300
30C300
30C300
30C300
30C300
30C300
30C300
30C300
FCF3C0
FCF3C0
ENDCHAR
STARTCHAR <unknown>
ENCODING 110
SWIDTH 500 0
DWIDTH 18 0
BBX 16 16 2 0
BITMAP
F3F0
F3F0
3C3C
3C3C
300C
300C
300C
300C
300C
300C
300C
300C
300C
300C
FC3F
FC3F
ENDCHAR
STARTCHAR <unknown>
ENCODING 111
SWIDTH 500 0
DWIDTH 18 0
BBX 14 16 2 0
BITMAP
0FF0
0FF0
303C
303C
C00C
C00C
C00C
C00C
C00C
C00C
C00C
C00C
F030
F030
3FC0
3FC0
ENDCHAR
STARTCHAR <unknown>
ENCODING 112
SWIDTH 500 0
DWIDTH 18 0
BBX 14 24 2 -8
BITMAP
F3F0
F3F0
3C3C
3C3C
300C
300C
300C
300C
300C
300C
300C
300C
3C30
3C30
33C0
33C0
3000
3000
3000
3000
3000
3000
FC00
FC00
ENDCHAR
STARTCHAR <unknown>
ENCODING 113
SWIDTH 500 0
DWIDTH 18 0
BBX 14 24 2 -8
BITMAP
0FCC
0FCC
30F0
30F0
C030
C030
C030
C030
C030
C030
C030
C030
F0F0
F0F0
3F30
3F30
0030
0030
0030
0030
0030
0030
00FC
00FC
ENDCHAR
STARTCHAR <unknown>
ENCODING 114
SWIDTH 500 0
DWIDTH 18 0
BBX 14 16 2 0
BITMAP
F3F0
F3F0
3C0C
3C0C
3000
3000
3000
3000
3000
3000
3000
3000
3000
3000
FC00
FC00
ENDCHAR
STARTCHAR <unknown>
ENCODING 115
SWIDTH 500 0
DWIDTH 18 0
BBX 14 16 2 0
BITMAP
0FCC
0FCC
303C
303C
300C
300C
0F00
0F00
00F0
00F0
C00C
C00C
F00C
F00C
CFF0
CFF0
ENDCHAR
STARTCHAR <unknown>
ENCODING 116
SWIDTH 500 0
DWIDTH 18 0
BBX 14 24 2 0
BITMAP
0C00
0C00
0C00
0C00
0C00
0C00
0C00
0C00
FFF0
FFF0
0C00
0C00
0C00
0C00
0C00
0C00
0C00
0C00
0C0C
0C0C
0F0C
0F0C
03F0
03F0
ENDCHAR
STARTCHAR <unknown>
ENCODING 117
SWIDTH 500 0
DWIDTH 18 0
BBX 16 16 2 0
BITMAP
F03C
F03C
300C
300C
300C
300C
300C
300C
300C
300C
300C
300C
3C3C
3C3C
0FCF
0FCF
ENDCHAR
STARTCHAR <unknown>
ENCODING 118
SWIDTH 500 0
DWIDTH 18 0
BBX 14 16 2 0
BITMAP
FCFC
FCFC
3030
3030
3030
3030
0CC0
0CC0
0CC0
0CC0
0CC0
0CC0
0300
0300
0300
0300
ENDCHAR
STARTCHAR <unknown>
ENCODING 119
SWIDTH 500 0
DWIDTH 18 0
BBX 18 16 0 0
BITMAP
FC0FC0
FC0FC0
30C300
30C300
30C300
30C300
33F300
33F300
0F3C00
0F3C00
0C0C00
0C0C00
0C0C00
0C0C00
0C0C00
0C0C00
ENDCHAR
STARTCHAR <unknown>
ENCODING 120
SWIDTH 500 0
DWIDTH 18 0
BBX 16 16 2 0
BITMAP
FC3F
FC3F
300C
300C
0C30
0C30
03C0
03C0
03C0
03C0
0C30
0C30
300C
300C
FC3F
FC3F
ENDCHAR
STARTCHAR <unknown>
ENCODING 121
SWIDTH 500 0
DWIDTH 18 0
BBX 16 24 2 -8
BITMAP
FC3F
FC3F
300C
300C
300C
300C
0C30
0C30
0C30
0C30
0330
0330
03C0
03C0
00C0
00C0
0300
0300
0300
0300
0C00
0C00
F000
F000
ENDCHAR
STARTCHAR <unknown>
ENCODING 122
SWIDTH 500 0
DWIDTH 18 0
BBX 14 16 2 0
BITMAP
FFFC
FFFC
C030
C030
00C0
00C0
0300
0300
0C00
0C00
3000
3000
C00C
C00C
FFFC
FFFC
ENDCHAR
STARTCHAR <unknown>
ENCODING 123
SWIDTH 500 0
DWIDTH 18 0
BBX 12 28 4 -4
BITMAP
03F0
03F0
0C00
0C00
0C00
0C00
0C00
0C00
0C00
0C00
0C00
0C00
F000
F000
0C00
0C00
0C00
0C00
0C00
0C00
0C00
0C00
0C00
0C00
0C00
0C00
03F0
03F0
ENDCHAR
STARTCHAR <unknown>
ENCODING 124
SWIDTH 500 0
DWIDTH 18 0
BBX 2 28 8 -4
BITMAP
C0
C0
C0
C0
C0
C0
C0
C0
C0
C0
C0
C0
C0
C0
C0
C0
C0
C0
C0
C0
C0
C0
C0
C0
C0
C0
C0
C0
ENDCHAR
STARTCHAR <unknown>
ENCODING 125
SWIDTH 500 0
DWIDTH 18 0
BBX 12 28 4 -4
BITMAP
FC00
FC00
0300
0300
0300
0300
0300
0300
0300
0300
0300
0300
00F0
00F0
0300
0300
0300
0300
0300
0300
0300
0300
0300
0300
0300
0300
FC00
FC00
ENDCHAR
STARTCHAR <unknown>
ENCODING 126
SWIDTH 500 0
DWIDTH 18 0
BBX 14 6 2 16
BITMAP
3C0C
3C0C
C30C
C30C
C0F0
C0F0
ENDCHAR
STARTCHAR <unknown>
ENCODING 127
SWIDTH 611 0
DWIDTH 22 0
BBX 0 0 0 0
BITMAP
ENDCHAR
STARTCHAR <unknown>
ENCODING 128
SWIDTH 666 0
DWIDTH 24 0
BBX 20 16 2 0
BITMAP
3FFFF0
3FFFF0
F00000
F00000
C00000
C00000
C00000
C00000
F00000
F00000
3FFFF0
3FFFF0
000000
000000
FFFFF0
FFFFF0
ENDCHAR
STARTCHAR <unknown>
ENCODING 129
SWIDTH 333 0
DWIDTH 12 0
BBX 10 18 2 0
BITMAP
C000
C000
F000
F000
CC00
CC00
C300
C300
FFC0
FFC0
C300
C300
CC00
CC00
F000
F000
C000
C000
ENDCHAR
STARTCHAR <unknown>
ENCODING 130
SWIDTH 500 0
DWIDTH 18 0
BBX 14 16 2 0
BITMAP
C30C
C30C
C30C
C30C
FFFC
FFFC
C30C
C30C
C30C
C30C
C00C
C00C
F03C
F03C
3FF0
3FF0
ENDCHAR
STARTCHAR <unknown>
ENCODING 131
SWIDTH 833 0
DWIDTH 30 0
BBX 26 32 2 -8
BITMAP
FFC00000
FFC00000
C0000000
C0000000
FF000000
FF000000
C0000000
C0000000
CF0FCFC0
CF0FCFC0
CCCC0C00
CCCC0C00
0F0F0F00
0F0F0F00
0CCC0C00
0CCC0C00
0CCFCFC0
0CCFCFC0
00000000
00000000
00000000
00000000
03F3F000
03F3F000
03303000
03303000
03F0F000
03F0F000
03303000
03303000
03F3F000
03F3F000
ENDCHAR
STARTCHAR <unknown>
ENCODING 132
SWIDTH 777 0
DWIDTH 28 0
BBX 24 24 2 0
BITMAP
003C00
003C00
003C00
003C00
00C300
00C300
00C300
00C300
0300C0
0300C0
0300C0
0300C0
0C0030
0C0030
0C0030
0C0030
3C003C
3C003C
30000C
30000C
F0000F
F0000F
FFFFFF
FFFFFF
ENDCHAR
STARTCHAR <unknown>
ENCODING 133
SWIDTH 833 0
DWIDTH 30 0
BBX 26 32 2 -8
BITMAP
FFC00000
FFC00000
C0000000
C0000000
FF000000
FF000000
C0000000
C0000000
CF0FCFC0
CF0FCFC0
CCCC0C00
CCCC0C00
0F0F0F00
0F0F0F00
0CCC0C00
0CCC0C00
0CCFCFC0
0CCFCFC0
00000000
00000000
00000000
00000000
03F3F000
03F3F000
03330000
03330000
03F3F000
03F3F000
03303000
03303000
03F3F000
03F3F000
ENDCHAR
STARTCHAR <unknown>
ENCODING 134
SWIDTH 611 0
DWIDTH 22 0
BBX 18 24 2 0
BITMAP
0FFC00
0FFC00
00C000
00C000
00C000
00C000
0FFC00
0FFC00
30C300
30C300
C0C0C0
C0C0C0
C0C0C0
C0C0C0
30C300
30C300
0FFC00
0FFC00
00C000
00C000
00C000
00C000
0FFC00
0FFC00
ENDCHAR
STARTCHAR <unknown>
ENCODING 135
SWIDTH 611 0
DWIDTH 22 0
BBX 18 24 2 0
BITMAP
FFFFC0
FFFFC0
0C03C0
0C03C0
0C00C0
0C00C0
0C00C0
0C00C0
0C0000
0C0000
0C0000
0C0000
0C0000
0C0000
0C0000
0C0000
0C0000
0C0000
0C0000
0C0000
0C0000
0C0000
FFC000
FFC000
ENDCHAR
STARTCHAR <unknown>
ENCODING 136
SWIDTH 833 0
DWIDTH 30 0
BBX 16 20 14 6
BITMAP
F000
F000
F000
F000
F000
F000
F000
F000
F000
F000
F000
F000
F000
F000
F000
F000
FFFF
FFFF
FFFF
FFFF
ENDCHAR
STARTCHAR <unknown>
ENCODING 137
SWIDTH 611 0
DWIDTH 22 0
BBX 22 20 0 -2
BITMAP
FC00FC
FC00FC
0F03C0
0F03C0
030300
030300
03CF00
03CF00
00CC00
00CC00
00CC00
00CC00
00FC00
00FC00
00FC00
00FC00
003000
003000
003000
003000
ENDCHAR
STARTCHAR <unknown>
ENCODING 138
SWIDTH 722 0
DWIDTH 26 0
BBX 22 24 2 0
BITMAP
03FF00
03FF00
0C00C0
0C00C0
300030
300030
300030
300030
C3030C
C3030C
C3FF0C
C3FF0C
C3030C
C3030C
C0000C
C0000C
F0003C
F0003C
300030
300030
0C00C0
0C00C0
03FF00
03FF00
ENDCHAR
STARTCHAR <unknown>
ENCODING 139
SWIDTH 833 0
DWIDTH 30 0
BBX 26 24 2 -2
BITMAP
00C000C0
00C000C0
0F3C00C0
0F3C00C0
30030300
30030300
C000C300
C000C300
00000C00
00000C00
00000C00
00000C00
00003000
00003000
00003000
00003000
0000C000
0000C000
0000C000
0000C000
00030000
00030000
00030000
00030000
ENDCHAR
STARTCHAR <unknown>
ENCODING 140
SWIDTH 722 0
DWIDTH 26 0
BBX 22 24 2 0
BITMAP
003000
003000
003000
003000
00CC00
00CC00
00CC00
00CC00
00CC00
00CC00
00CC00
00CC00
030300
030300
030300
030300
030300
030300
0C00C0
0C00C0
0C00C0
0C00C0
FFCFFC
FFCFFC
ENDCHAR
STARTCHAR <unknown>
ENCODING 141
SWIDTH 500 0
DWIDTH 18 0
BBX 14 14 2 0
BITMAP
0FFC
0FFC
3000
3000
C000
C000
FFFC
FFFC
C000
C000
3000
3000
0FFC
0FFC
ENDCHAR
STARTCHAR <unknown>
ENCODING 142
SWIDTH 500 0
DWIDTH 18 0
BBX 14 22 2 -4
BITMAP
000C
000C
000C
000C
0FFC
0FFC
3030
3030
C0C0
C0C0
FFFC
FFFC
C0C0
C0C0
3300
3300
0FFC
0FFC
0C00
0C00
0C00
0C00
ENDCHAR
STARTCHAR <unknown>
ENCODING 143
SWIDTH 833 0
DWIDTH 30 0
BBX 28 14 2 4
BITMAP
C0030C00
C0030C00
3000C300
3000C300
0C0030C0
0C0030C0
03FFFFF0
03FFFFF0
0C0030C0
0C0030C0
3000C300
3000C300
C0030C00
C0030C00
ENDCHAR
STARTCHAR <unknown>
ENCODING 144
SWIDTH 777 0
DWIDTH 28 0
BBX 24 24 2 0
BITMAP
FFFFFF
FFFFFF
0C0030
0C0030
0C0030
0C0030
0C0030
0C0030
0C0030
0C0030
0C0030
0C0030
0C0030
0C0030
0C0030
0C0030
0C0030
0C0030
0C0030
0C0030
0C0030
0C0030
FFC3FF
FFC3FF
ENDCHAR
STARTCHAR <unknown>
ENCODING 145
SWIDTH 611 0
DWIDTH 22 0
BBX 18 30 2 -8
BITMAP
FFFF00
FFFF00
C00000
C00000
C00000
C00000
C00000
C00000
C00000
C00000
C00000
C00000
C00000
C00000
C00000
C00000
000000
000000
C0CC00
C0CC00
F3CC00
F3CC00
CCCC00
CCCC00
CCCC00
CCCC00
C0CC00
C0CC00
C0CFC0
C0CFC0
ENDCHAR
STARTCHAR <unknown>
ENCODING 146
SWIDTH 333 0
DWIDTH 12 0
BBX 10 18 2 0
BITMAP
C000
C000
F000
F000
CC00
CC00
C300
C300
C0C0
C0C0
C300
C300
CC00
CC00
F000
F000
C000
C000
ENDCHAR
STARTCHAR <unknown>
ENCODING 147
SWIDTH 666 0
DWIDTH 24 0
BBX 20 24 2 0
BITMAP
FFFFF0
FFFFF0
F000F0
F000F0
300030
300030
0C0030
0C0030
030000
030000
030000
030000
03C000
03C000
030000
030000
0C0030
0C0030
0C0030
0C0030
3000F0
3000F0
FFFFF0
FFFFF0
ENDCHAR
STARTCHAR <unknown>
ENCODING 148
SWIDTH 555 0
DWIDTH 20 0
BBX 16 16 2 6
BITMAP
FFFF
FFFF
C000
C000
C00F
C00F
C00F
C00F
C000
C000
C000
C000
C00F
C00F
C00F
C00F
ENDCHAR
STARTCHAR <unknown>
ENCODING 149
SWIDTH 722 0
DWIDTH 26 0
BBX 22 24 2 0
BITMAP
3F03F0
3F03F0
C0CC0C
C0CC0C
003000
003000
003000
003000
003000
003000
003000
003000
003000
003000
003000
003000
003000
003000
003000
003000
003000
003000
03FF00
03FF00
ENDCHAR
STARTCHAR <unknown>
ENCODING 150
SWIDTH 833 0
DWIDTH 30 0
BBX 26 32 2 -8
BITMAP
FFC00000
FFC00000
C0000000
C0000000
FF000000
FF000000
C0000000
C0000000
CF0FCFC0
CF0FCFC0
CCCC0C00
CCCC0C00
0F0F0F00
0F0F0F00
0CCC0C00
0CCC0C00
0CCFCFC0
0CCFCFC0
00000000
00000000
00000000
00000000
03F3F000
03F3F000
03330000
03330000
03F3F000
03F3F000
00333000
00333000
0033F000
0033F000
ENDCHAR
STARTCHAR <unknown>
ENCODING 151
SWIDTH 666 0
DWIDTH 24 0
BBX 20 24 2 0
BITMAP
03FC00
03FC00
3C03C0
3C03C0
C00030
C00030
C00030
C00030
C00030
C00030
C00030
C00030
3000C0
3000C0
3000C0
3000C0
0C0300
0C0300
CC0330
CC0330
330CC0
330CC0
3F0FC0
3F0FC0
ENDCHAR
STARTCHAR <unknown>
ENCODING 152
SWIDTH 611 0
DWIDTH 22 0
BBX 18 24 2 0
BITMAP
FFFFC0
FFFFC0
C000C0
C000C0
000000
000000
000000
000000
300300
300300
3FFF00
3FFF00
300300
300300
000000
000000
000000
000000
C000C0
C000C0
C000C0
C000C0
FFFFC0
FFFFC0
ENDCHAR
STARTCHAR <unknown>
ENCODING 153
SWIDTH 722 0
DWIDTH 26 0
BBX 22 24 2 0
BITMAP
03FF00
03FF00
003000
003000
F0303C
F0303C
303030
303030
303030
303030
303030
303030
303030
303030
0C30C0
0C30C0
03FF00
03FF00
003000
003000
003000
003000
03FF00
03FF00
ENDCHAR
STARTCHAR <unknown>
ENCODING 154
SWIDTH 500 0
DWIDTH 18 0
BBX 18 28 0 -2
BITMAP
0000C0
0000C0
03FF00
03FF00
0C0F00
0C0F00
300F00
300F00
300F00
300F00
303300
303300
30C300
30C300
30C300
30C300
330300
330300
3C0300
3C0300
3C0300
3C0300
3C0C00
3C0C00
3FF000
3FF000
C00000
C00000
ENDCHAR
STARTCHAR <unknown>
ENCODING 155
SWIDTH 611 0
DWIDTH 22 0
BBX 22 20 0 -2
BITMAP
003000
003000
003000
003000
00FC00
00FC00
00CC00
00CC00
00CC00
00CC00
00CC00
00CC00
03CF00
03CF00
030300
030300
0F03C0
0F03C0
FC00FC
FC00FC
ENDCHAR
STARTCHAR <unknown>
ENCODING 156
SWIDTH 888 0
DWIDTH 32 0
BBX 32 12 0 -2
BITMAP
FFFFFFFF
FFFFFFFF
FFFFFFFF
FFFFFFFF
00000000
00000000
00000000
00000000
FFFFFFFF
FFFFFFFF
FFFFFFFF
FFFFFFFF
ENDCHAR
STARTCHAR <unknown>
ENCODING 157
SWIDTH 833 0
DWIDTH 30 0
BBX 16 20 14 -10
BITMAP
FFFF
FFFF
FFFF
FFFF
F000
F000
F000
F000
FFFF
FFFF
FFFF
FFFF
F000
F000
F000
F000
F000
F000
F000
F000
ENDCHAR
STARTCHAR <unknown>
ENCODING 158
SWIDTH 833 0
DWIDTH 30 0
BBX 28 14 2 4
BITMAP
C0330C00
C0330C00
30330300
30330300
0C3300C0
0C3300C0
03FFFFF0
03FFFFF0
0C3300C0
0C3300C0
30330300
30330300
C0330C00
C0330C00
ENDCHAR
STARTCHAR <unknown>
ENCODING 159
SWIDTH 833 0
DWIDTH 30 0
BBX 28 14 2 4
BITMAP
00330C00
00330C00
00330300
00330300
003300C0
003300C0
FFFFFFF0
FFFFFFF0
003300C0
003300C0
00330300
00330300
00330C00
00330C00
ENDCHAR
STARTCHAR <unknown>
ENCODING 160
SWIDTH 666 0
DWIDTH 24 0
BBX 20 12 2 4
BITMAP
3FFFF0
3FFFF0
F00000
F00000
C00000
C00000
C00000
C00000
F00000
F00000
3FFFF0
3FFFF0
ENDCHAR
STARTCHAR <unknown>
ENCODING 161
SWIDTH 500 0
DWIDTH 18 0
BBX 14 16 2 0
BITMAP
3FF0
3FF0
F03C
F03C
C00C
C00C
C00C
C00C
C00C
C00C
C00C
C00C
C00C
C00C
C00C
C00C
ENDCHAR
STARTCHAR <unknown>
ENCODING 162
SWIDTH 333 0
DWIDTH 12 0
BBX 8 30 2 -4
BITMAP
C0
C0
C0
C0
30
30
30
30
0C
0C
0C
0C
03
03
03
03
03
03
0C
0C
0C
0C
30
30
30
30
C0
C0
C0
C0
ENDCHAR
STARTCHAR <unknown>
ENCODING 163
SWIDTH 611 0
DWIDTH 22 0
BBX 18 18 2 0
BITMAP
FFFFC0
FFFFC0
F003C0
F003C0
CC0CC0
CC0CC0
C330C0
C330C0
C0C0C0
C0C0C0
C330C0
C330C0
CC0CC0
CC0CC0
F003C0
F003C0
FFFFC0
FFFFC0
ENDCHAR
STARTCHAR <unknown>
ENCODING 164
SWIDTH 888 0
DWIDTH 32 0
BBX 28 14 2 4
BITMAP
03000C00
03000C00
0C000300
0C000300
3FFFFFC0
3FFFFFC0
C0000030
C0000030
3FFFFFC0
3FFFFFC0
0C000300
0C000300
03000C00
03000C00
ENDCHAR
STARTCHAR <unknown>
ENCODING 165
SWIDTH 666 0
DWIDTH 24 0
BBX 20 20 2 -2
BITMAP
0FFF00
0FFF00
3FFFC0
3FFFC0
FC03F0
FC03F0
F000F0
F000F0
F000F0
F000F0
F000F0
F000F0
F000F0
F000F0
F000F0
F000F0
F000F0
F000F0
F000F0
F000F0
ENDCHAR
STARTCHAR <unknown>
ENCODING 166
SWIDTH 500 0
DWIDTH 18 0
BBX 14 12 2 4
BITMAP
0300
0300
0CC0
0CC0
3030
3030
FFFC
FFFC
0000
0000
FFFC
FFFC
ENDCHAR
STARTCHAR <unknown>
ENCODING 167
SWIDTH 333 0
DWIDTH 12 0
BBX 8 30 2 -4
BITMAP
03
03
03
03
0C
0C
0C
0C
30
30
30
30
C0
C0
C0
C0
C0
C0
30
30
30
30
0C
0C
0C
0C
03
03
03
03
ENDCHAR
STARTCHAR <unknown>
ENCODING 168
SWIDTH 333 0
DWIDTH 12 0
BBX 8 28 2 -4
BITMAP
03
03
0C
0C
3C
3C
3C
3C
CC
CC
CC
CC
CC
CC
CC
CC
CC
CC
CC
CC
3C
3C
3C
3C
0C
0C
03
03
ENDCHAR
STARTCHAR <unknown>
ENCODING 169
SWIDTH 333 0
DWIDTH 12 0
BBX 8 28 2 -4
BITMAP
C0
C0
30
30
3C
3C
3C
3C
33
33
33
33
33
33
33
33
33
33
33
33
3C
3C
3C
3C
30
30
C0
C0
ENDCHAR
STARTCHAR <unknown>
ENCODING 170
SWIDTH 888 0
DWIDTH 32 0
BBX 28 14 2 4
BITMAP
03000C00
03000C00
0C000300
0C000300
300000C0
300000C0
FFFFFFF0
FFFFFFF0
300000C0
300000C0
0C000300
0C000300
03000C00
03000C00
ENDCHAR
STARTCHAR <unknown>
ENCODING 171
SWIDTH 611 0
DWIDTH 22 0
BBX 18 18 2 0
BITMAP
03F000
03F000
3CCF00
3CCF00
30C300
30C300
C0C0C0
C0C0C0
FFFFC0
FFFFC0
C0C0C0
C0C0C0
30C300
30C300
3CCF00
3CCF00
03F000
03F000
ENDCHAR
STARTCHAR <unknown>
ENCODING 172
SWIDTH 555 0
DWIDTH 20 0
BBX 16 16 2 6
BITMAP
FFFF
FFFF
C000
C000
C000
C000
C000
C000
C000
C000
C000
C000
C000
C000
C000
C000
ENDCHAR
STARTCHAR <unknown>
ENCODING 173
SWIDTH 722 0
DWIDTH 26 0
BBX 24 14 2 4
BITMAP
0000C0
0000C0
000030
000030
00000C
00000C
FFFFFF
FFFFFF
00000C
00000C
000030
000030
0000C0
0000C0
ENDCHAR
STARTCHAR <unknown>
ENCODING 174
SWIDTH 555 0
DWIDTH 20 0
BBX 16 16 2 6
BITMAP
FFFF
FFFF
0003
0003
0003
0003
0003
0003
0003
0003
0003
0003
0003
0003
0003
0003
ENDCHAR
STARTCHAR <unknown>
ENCODING 175
SWIDTH 611 0
DWIDTH 22 0
BBX 20 24 2 0
BITMAP
FFFF00
FFFF00
3303C0
3303C0
3300C0
3300C0
3300C0
3300C0
3300C0
3300C0
330300
330300
33FC00
33FC00
330300
330300
330300
330300
3300C0
3300C0
3300C0
3300C0
FFC3F0
FFC3F0
ENDCHAR
STARTCHAR <unknown>
ENCODING 176
SWIDTH 611 0
DWIDTH 22 0
BBX 18 18 2 0
BITMAP
FFFFC0
FFFFC0
FFFFC0
FFFFC0
FFFFC0
FFFFC0
FFFFC0
FFFFC0
FFFFC0
FFFFC0
FFFFC0
FFFFC0
FFFFC0
FFFFC0
FFFFC0
FFFFC0
FFFFC0
FFFFC0
ENDCHAR
STARTCHAR <unknown>
ENCODING 177
SWIDTH 611 0
DWIDTH 22 0
BBX 18 20 2 0
BITMAP
00C000
00C000
00C000
00C000
033000
033000
033000
033000
0C0C00
0C0C00
0C0C00
0C0C00
300300
300300
300300
300300
C000C0
C000C0
C000C0
C000C0
ENDCHAR
STARTCHAR <unknown>
ENCODING 178
SWIDTH 611 0
DWIDTH 22 0
BBX 18 20 2 0
BITMAP
C000C0
C000C0
C000C0
C000C0
300300
300300
300300
300300
0C0C00
0C0C00
0C0C00
0C0C00
033000
033000
033000
033000
00C000
00C000
00C000
00C000
ENDCHAR
STARTCHAR <unknown>
ENCODING 179
SWIDTH 666 0
DWIDTH 24 0
BBX 20 10 2 4
BITMAP
FFFFF0
FFFFF0
000030
000030
000030
000030
000030
000030
000030
000030
ENDCHAR
STARTCHAR <unknown>
ENCODING 180
SWIDTH 666 0
DWIDTH 24 0
BBX 20 14 2 4
BITMAP
000C00
000C00
000300
000300
FFFFC0
FFFFC0
000030
000030
FFFFC0
FFFFC0
000300
000300
000C00
000C00
ENDCHAR
STARTCHAR <unknown>
ENCODING 181
SWIDTH 500 0
DWIDTH 18 0
BBX 18 24 0 0
BITMAP
FC0FC0
FC0FC0
300300
300300
300300
300300
0C0C00
0C0C00
0FFC00
0FFC00
0C0C00
0C0C00
033000
033000
033000
033000
033000
033000
00C000
00C000
00C000
00C000
00C000
00C000
ENDCHAR
STARTCHAR <unknown>
ENCODING 182
SWIDTH 500 0
DWIDTH 18 0
BBX 14 24 2 0
BITMAP
FFFC
FFFC
C030
C030
0030
0030
0030
0030
0030
0030
3FF0
3FF0
0030
0030
0030
0030
0030
0030
0030
0030
C030
C030
FFFC
FFFC
ENDCHAR
STARTCHAR <unknown>
ENCODING 183
SWIDTH 388 0
DWIDTH 14 0
BBX 6 6 4 6
BITMAP
FC
FC
FC
FC
FC
FC
ENDCHAR
STARTCHAR <unknown>
ENCODING 184
SWIDTH 500 0
DWIDTH 18 0
BBX 14 14 2 4
BITMAP
C00C
C00C
3030
3030
0CC0
0CC0
0300
0300
0CC0
0CC0
3030
3030
C00C
C00C
ENDCHAR
STARTCHAR <unknown>
ENCODING 185
SWIDTH 555 0
DWIDTH 20 0
BBX 16 32 2 -8
BITMAP
0FF0
0FF0
300C
300C
C003
C003
C3C3
C3C3
CC33
CC33
CC33
CC33
CC33
CC33
C303
C303
C0C3
C0C3
CC33
CC33
CC33
CC33
CC33
CC33
C3C3
C3C3
C003
C003
300C
300C
0FF0
0FF0
ENDCHAR
STARTCHAR <unknown>
ENCODING 186
SWIDTH 388 0
DWIDTH 14 0
BBX 10 24 2 -4
BITMAP
3F00
3F00
CCC0
CCC0
FFC0
FFC0
CCC0
CCC0
3F00
3F00
0000
0000
0000
0000
3F00
3F00
CCC0
CCC0
FFC0
FFC0
CCC0
CCC0
3F00
3F00
ENDCHAR
STARTCHAR <unknown>
ENCODING 187
SWIDTH 500 0
DWIDTH 18 0
BBX 10 30 4 -10
BITMAP
3F00
3F00
C0C0
C0C0
C0C0
C0C0
C0C0
C0C0
3F00
3F00
0000
0000
0000
0000
3F00
3F00
C0C0
C0C0
C0C0
C0C0
C0C0
C0C0
3FC0
3FC0
0300
0300
0C00
0C00
3000
3000
ENDCHAR
STARTCHAR <unknown>
ENCODING 188
SWIDTH 555 0
DWIDTH 20 0
BBX 16 24 2 -2
BITMAP
0003
0003
000C
000C
0030
0030
00C0
00C0
0300
0300
0C00
0C00
C300
C300
30C0
30C0
0C30
0C30
030C
030C
00C3
00C3
0030
0030
ENDCHAR
STARTCHAR <unknown>
ENCODING 189
SWIDTH 555 0
DWIDTH 20 0
BBX 16 14 2 4
BITMAP
000C
000C
0030
0030
FFFF
FFFF
0300
0300
FFFF
FFFF
0C00
0C00
3000
3000
ENDCHAR
STARTCHAR <unknown>
ENCODING 190
SWIDTH 555 0
DWIDTH 20 0
BBX 16 24 2 -2
BITMAP
C000
C000
3000
3000
0C00
0C00
0300
0300
00C0
00C0
0030
0030
00C3
00C3
030C
030C
0C30
0C30
30C0
30C0
C300
C300
0C00
0C00
ENDCHAR
STARTCHAR <unknown>
ENCODING 191
SWIDTH 833 0
DWIDTH 30 0
BBX 26 32 2 -8
BITMAP
FFC00000
FFC00000
C0000000
C0000000
FF000000
FF000000
C0000000
C0000000
CF0FCFC0
CF0FCFC0
CCCC0C00
CCCC0C00
0F0F0F00
0F0F0F00
0CCC0C00
0CCC0C00
0CCFCFC0
0CCFCFC0
00000000
00000000
00000000
00000000
0303F000
0303F000
03030000
03030000
03F3C000
03F3C000
03330000
03330000
03F30000
03F30000
ENDCHAR
STARTCHAR <unknown>
ENCODING 192
SWIDTH 500 0
DWIDTH 18 0
BBX 14 16 2 0
BITMAP
C00C
C00C
C00C
C00C
C00C
C00C
C00C
C00C
C00C
C00C
C00C
C00C
F03C
F03C
3FF0
3FF0
ENDCHAR
STARTCHAR <unknown>
ENCODING 193
SWIDTH 611 0
DWIDTH 22 0
BBX 18 14 2 0
BITMAP
0F0000
0F0000
30C300
30C300
C03300
C03300
C03300
C03300
C00C00
C00C00
303CC0
303CC0
0FC3C0
0FC3C0
ENDCHAR
STARTCHAR <unknown>
ENCODING 194
SWIDTH 444 0
DWIDTH 16 0
BBX 12 30 2 -6
BITMAP
0FC0
0FC0
3030
3030
C030
C030
C030
C030
C030
C030
FFC0
FFC0
C0C0
C0C0
C030
C030
C030
C030
C030
C030
F0C0
F0C0
CFC0
CFC0
C000
C000
C000
C000
C000
C000
ENDCHAR
STARTCHAR <unknown>
ENCODING 195
SWIDTH 833 0
DWIDTH 30 0
BBX 26 32 2 -8
BITMAP
FFC00000
FFC00000
C0000000
C0000000
FF000000
FF000000
C0000000
C0000000
CF0FCFC0
CF0FCFC0
CCCC0C00
CCCC0C00
0F0F0F00
0F0F0F00
0CCC0C00
0CCC0C00
0CCFCFC0
0CCFCFC0
00000000
00000000
00000000
00000000
03F3F000
03F3F000
03303000
03303000
0300F000
0300F000
03303000
03303000
03F3F000
03F3F000
ENDCHAR
STARTCHAR <unknown>
ENCODING 196
SWIDTH 388 0
DWIDTH 14 0
BBX 10 24 2 0
BITMAP
3F00
3F00
C0C0
C0C0
C000
C000
C000
C000
3000
3000
0F00
0F00
3300
3300
C0C0
C0C0
C0C0
C0C0
C0C0
C0C0
30C0
30C0
0F00
0F00
ENDCHAR
STARTCHAR <unknown>
ENCODING 197
SWIDTH 444 0
DWIDTH 16 0
BBX 12 14 2 0
BITMAP
3FC0
3FC0
F000
F000
FF00
FF00
C000
C000
C000
C000
3030
3030
0FC0
0FC0
ENDCHAR
STARTCHAR <unknown>
ENCODING 198
SWIDTH 500 0
DWIDTH 18 0
BBX 14 30 2 -6
BITMAP
0300
0300
0300
0300
0300
0300
0300
0300
0300
0300
0FC0
0FC0
3330
3330
C30C
C30C
C30C
C30C
C30C
C30C
3330
3330
0FC0
0FC0
0300
0300
0300
0300
0300
0300
ENDCHAR
STARTCHAR <unknown>
ENCODING 199
SWIDTH 555 0
DWIDTH 20 0
BBX 16 20 2 -6
BITMAP
3F03
3F03
F0C3
F0C3
C033
C033
003C
003C
000C
000C
000C
000C
000C
000C
000C
000C
000C
000C
000C
000C
ENDCHAR
STARTCHAR <unknown>
ENCODING 200
SWIDTH 500 0
DWIDTH 18 0
BBX 14 20 2 -6
BITMAP
F0F0
F0F0
CF0C
CF0C
CC0C
CC0C
0C0C
0C0C
0C0C
0C0C
0C0C
0C0C
0C0C
0C0C
000C
000C
000C
000C
000C
000C
ENDCHAR
STARTCHAR <unknown>
ENCODING 201
SWIDTH 277 0
DWIDTH 10 0
BBX 6 14 2 0
BITMAP
C0
C0
C0
C0
C0
C0
C0
C0
CC
CC
CC
CC
F0
F0
ENDCHAR
STARTCHAR <unknown>
ENCODING 202
SWIDTH 388 0
DWIDTH 14 0
BBX 10 24 2 0
BITMAP
0C00
0C00
3300
3300
C0C0
C0C0
C0C0
C0C0
C0C0
C0C0
FFC0
FFC0
FFC0
FFC0
C0C0
C0C0
C0C0
C0C0
C0C0
C0C0
3300
3300
0C00
0C00
ENDCHAR
STARTCHAR <unknown>
ENCODING 203
SWIDTH 500 0
DWIDTH 18 0
BBX 14 14 2 0
BITMAP
C0F0
C0F0
C300
C300
FC00
FC00
CF00
CF00
C0CC
C0CC
C0CC
C0CC
C03C
C03C
ENDCHAR
STARTCHAR <unknown>
ENCODING 204
SWIDTH 555 0
DWIDTH 20 0
BBX 16 24 2 0
BITMAP
F000
F000
0C00
0C00
0C00
0C00
0300
0300
0300
0300
00C0
00C0
00C0
00C0
00F0
00F0
0330
0330
0C0C
0C0C
0C0C
0C0C
3003
3003
ENDCHAR
STARTCHAR <unknown>
ENCODING 205
SWIDTH 500 0
DWIDTH 18 0
BBX 14 20 2 -6
BITMAP
C0C0
C0C0
C0C0
C0C0
C0C0
C0C0
C0C0
C0C0
C0CC
C0CC
C3CC
C3CC
FF3C
FF3C
C000
C000
C000
C000
C000
C000
ENDCHAR
STARTCHAR <unknown>
ENCODING 206
SWIDTH 444 0
DWIDTH 16 0
BBX 12 14 2 0
BITMAP
F030
F030
3030
3030
3030
3030
30C0
30C0
30C0
30C0
3300
3300
3C00
3C00
ENDCHAR
STARTCHAR <unknown>
ENCODING 207
SWIDTH 888 0
DWIDTH 32 0
BBX 30 14 0 4
BITMAP
0030C300
0030C300
003030C0
003030C0
00300C30
00300C30
FFFFFFFC
FFFFFFFC
00300C30
00300C30
003030C0
003030C0
0030C300
0030C300
ENDCHAR
STARTCHAR <unknown>
ENCODING 208
SWIDTH 555 0
DWIDTH 20 0
BBX 16 14 2 0
BITMAP
3FFF
3FFF
C330
C330
C330
C330
0330
0330
0330
0330
0330
0330
0C0C
0C0C
ENDCHAR
STARTCHAR <unknown>
ENCODING 209
SWIDTH 666 0
DWIDTH 24 0
BBX 20 20 2 -6
BITMAP
F00300
F00300
CC0300
CC0300
030C00
030C00
033000
033000
00F000
00F000
00F000
00F000
00CC00
00CC00
030C00
030C00
0C0330
0C0330
0C00F0
0C00F0
ENDCHAR
STARTCHAR <unknown>
ENCODING 210
SWIDTH 388 0
DWIDTH 14 0
BBX 10 20 2 -6
BITMAP
3F00
3F00
3300
3300
C0C0
C0C0
C0C0
C0C0
C0C0
C0C0
F300
F300
FF00
FF00
C000
C000
C000
C000
C000
C000
ENDCHAR
STARTCHAR <unknown>
ENCODING 211
SWIDTH 500 0
DWIDTH 18 0
BBX 14 14 2 0
BITMAP
0FFC
0FFC
30C0
30C0
C030
C030
C030
C030
C030
C030
30C0
30C0
0F00
0F00
ENDCHAR
STARTCHAR <unknown>
ENCODING 212
SWIDTH 500 0
DWIDTH 18 0
BBX 14 14 2 0
BITMAP
3FFC
3FFC
C300
C300
C300
C300
0300
0300
0300
0300
0300
0300
0300
0300
ENDCHAR
STARTCHAR <unknown>
ENCODING 213
SWIDTH 555 0
DWIDTH 20 0
BBX 16 14 2 0
BITMAP
3C0C
3C0C
CC03
CC03
CC03
CC03
0C03
0C03
0C03
0C03
0C0C
0C0C
03F0
03F0
ENDCHAR
STARTCHAR <unknown>
ENCODING 214
SWIDTH 833 0
DWIDTH 30 0
BBX 26 32 2 -8
BITMAP
FFC00000
FFC00000
C0000000
C0000000
FF000000
FF000000
C0000000
C0000000
CF0FCFC0
CF0FCFC0
CCCC0C00
CCCC0C00
0F0F0F00
0F0F0F00
0CCC0C00
0CCC0C00
0CCFCFC0
0CCFCFC0
00000000
00000000
00000000
00000000
0033F000
0033F000
00330000
00330000
03F3F000
03F3F000
03333000
03333000
03F3F000
03F3F000
ENDCHAR
STARTCHAR <unknown>
ENCODING 215
SWIDTH 666 0
DWIDTH 24 0
BBX 20 14 2 0
BITMAP
3000C0
3000C0
C00030
C00030
C03030
C03030
C03030
C03030
C03030
C03030
30FCC0
30FCC0
0F0FC0
0F0FC0
ENDCHAR
STARTCHAR <unknown>
ENCODING 216
SWIDTH 444 0
DWIDTH 16 0
BBX 12 30 2 -6
BITMAP
0C00
0C00
0C00
0C00
3FC0
3FC0
C000
C000
C000
C000
C000
C000
3FC0
3FC0
3000
3000
C000
C000
C000
C000
C000
C000
3000
3000
0FC0
0FC0
0030
0030
03F0
03F0
ENDCHAR
STARTCHAR <unknown>
ENCODING 217
SWIDTH 611 0
DWIDTH 22 0
BBX 18 30 2 -6
BITMAP
003000
003000
003000
003000
003000
003000
003000
003000
003000
003000
3C3300
3C3300
CC30C0
CC30C0
CC30C0
CC30C0
0C30C0
0C30C0
0C30C0
0C30C0
033300
033300
00FC00
00FC00
003000
003000
003000
003000
003000
003000
ENDCHAR
STARTCHAR <unknown>
ENCODING 218
SWIDTH 444 0
DWIDTH 16 0
BBX 12 30 2 -6
BITMAP
0C00
0C00
0C00
0C00
0FC0
0FC0
3000
3000
3000
3000
C000
C000
C000
C000
C000
C000
C000
C000
C000
C000
3000
3000
3C00
3C00
03F0
03F0
0030
0030
03F0
03F0
ENDCHAR
STARTCHAR <unknown>
ENCODING 219
SWIDTH 555 0
DWIDTH 20 0
BBX 16 32 2 -8
BITMAP
FF00
FF00
C000
C000
C000
C000
C000
C000
C000
C000
C000
C000
C000
C000
C000
C000
C000
C000
C000
C000
C000
C000
C303
C303
C0CC
C0CC
FC30
FC30
00CC
00CC
0303
0303
ENDCHAR
STARTCHAR <unknown>
ENCODING 220
SWIDTH 833 0
DWIDTH 30 0
BBX 4 36 14 -10
BITMAP
F0
F0
F0
F0
F0
F0
F0
F0
F0
F0
F0
F0
F0
F0
F0
F0
F0
F0
F0
F0
F0
F0
F0
F0
F0
F0
F0
F0
F0
F0
F0
F0
F0
F0
F0
F0
ENDCHAR
STARTCHAR <unknown>
ENCODING 221
SWIDTH 500 0
DWIDTH 18 0
BBX 14 32 2 -8
BITMAP
03FC
03FC
000C
000C
000C
000C
000C
000C
000C
000C
000C
000C
000C
000C
000C
000C
000C
000C
000C
000C
000C
000C
C0CC
C0CC
330C
330C
0C3C
0C3C
3300
3300
C0C0
C0C0
ENDCHAR
STARTCHAR <unknown>
ENCODING 222
SWIDTH 666 0
DWIDTH 24 0
BBX 20 20 2 -2
BITMAP
F000F0
F000F0
F000F0
F000F0
F000F0
F000F0
F000F0
F000F0
F000F0
F000F0
F000F0
F000F0
F000F0
F000F0
FC03F0
FC03F0
3FFFC0
3FFFC0
0FFF00
0FFF00
ENDCHAR
STARTCHAR <unknown>
ENCODING 223
SWIDTH 833 0
DWIDTH 30 0
BBX 26 14 2 4
BITMAP
00303000
00303000
00300C00
00300C00
00300300
00300300
FFFFFFC0
FFFFFFC0
00300300
00300300
00300C00
00300C00
00303000
00303000
ENDCHAR
STARTCHAR <unknown>
ENCODING 224
SWIDTH 833 0
DWIDTH 30 0
BBX 26 14 2 4
BITMAP
C0003000
C0003000
30000C00
30000C00
0C000300
0C000300
0FFFFFC0
0FFFFFC0
0C000300
0C000300
30000C00
30000C00
C0003000
C0003000
ENDCHAR
STARTCHAR <unknown>
ENCODING 225
SWIDTH 388 0
DWIDTH 14 0
BBX 10 18 2 0
BITMAP
00C0
00C0
03C0
03C0
0CC0
0CC0
30C0
30C0
FFC0
FFC0
30C0
30C0
0CC0
0CC0
03C0
03C0
00C0
00C0
ENDCHAR
STARTCHAR <unknown>
ENCODING 226
SWIDTH 722 0
DWIDTH 26 0
BBX 22 22 2 0
BITMAP
003000
003000
003000
003000
003000
003000
003000
003000
003000
003000
003000
003000
003000
003000
003000
003000
003000
003000
003000
003000
FFFFFC
FFFFFC
ENDCHAR
STARTCHAR <unknown>
ENCODING 227
SWIDTH 2000 0
DWIDTH 72 0
BBX 20 14 2 4
BITMAP
030000
030000
0C0000
0C0000
3FFFF0
3FFFF0
C00000
C00000
3FFFF0
3FFFF0
0C0000
0C0000
030000
030000
ENDCHAR
STARTCHAR <unknown>
ENCODING 228
SWIDTH 1277 0
DWIDTH 46 0
BBX 20 12 2 4
BITMAP
FFFFC0
FFFFC0
0000F0
0000F0
000030
000030
000030
000030
0000F0
0000F0
FFFFC0
FFFFC0
ENDCHAR
STARTCHAR <unknown>
ENCODING 229
SWIDTH 2000 0
DWIDTH 72 0
BBX 20 16 2 0
BITMAP
FFFFC0
FFFFC0
0000F0
0000F0
000030
000030
000030
000030
0000F0
0000F0
FFFFC0
FFFFC0
000000
000000
FFFFF0
FFFFF0
ENDCHAR
STARTCHAR <unknown>
ENCODING 230
SWIDTH 611 0
DWIDTH 22 0
BBX 18 24 2 0
BITMAP
FFFFC0
FFFFC0
C300C0
C300C0
C30000
C30000
C30000
C30000
C30000
C30000
C3FF00
C3FF00
C30000
C30000
C30000
C30000
C30000
C30000
C30000
C30000
C30000
C30000
FFC000
FFC000
ENDCHAR
STARTCHAR <unknown>
ENCODING 231
SWIDTH 722 0
DWIDTH 26 0
BBX 22 22 2 0
BITMAP
000FFC
000FFC
00003C
00003C
0000CC
0000CC
00030C
00030C
000C0C
000C0C
003000
003000
00C000
00C000
030000
030000
0C0000
0C0000
300000
300000
C00000
C00000
ENDCHAR
STARTCHAR <unknown>
ENCODING 232
SWIDTH 666 0
DWIDTH 24 0
BBX 20 20 2 2
BITMAP
C00000
C00000
300000
300000
0C0000
0C0000
030000
030000
00C000
00C000
003030
003030
000C30
000C30
000330
000330
0000F0
0000F0
003FF0
003FF0
ENDCHAR
STARTCHAR <unknown>
ENCODING 233
SWIDTH 833 0
DWIDTH 30 0
BBX 26 32 2 -8
BITMAP
FFC00000
FFC00000
C0000000
C0000000
FF000000
FF000000
C0000000
C0000000
CF0FCFC0
CF0FCFC0
CCCC0C00
CCCC0C00
0F0F0F00
0F0F0F00
0CCC0C00
0CCC0C00
0CCFCFC0
0CCFCFC0
00000000
00000000
00000000
00000000
03F3F000
03F3F000
03033000
03033000
03C3F000
03C3F000
03003000
03003000
03F03000
03F03000
ENDCHAR
STARTCHAR <unknown>
ENCODING 234
SWIDTH 500 0
DWIDTH 18 0
BBX 14 26 2 -2
BITMAP
0300
0300
0FC0
0FC0
3330
3330
C30C
C30C
0300
0300
0300
0300
0300
0300
0300
0300
0300
0300
C30C
C30C
3330
3330
0FC0
0FC0
0300
0300
ENDCHAR
STARTCHAR <unknown>
ENCODING 235
SWIDTH 555 0
DWIDTH 20 0
BBX 18 8 2 14
BITMAP
00C000
00C000
0F3C00
0F3C00
300300
300300
C000C0
C000C0
ENDCHAR
STARTCHAR <unknown>
ENCODING 236
SWIDTH 833 0
DWIDTH 30 0
BBX 26 32 2 -8
BITMAP
FFC00000
FFC00000
C0000000
C0000000
FF000000
FF000000
C0000000
C0000000
CF0FCFC0
CF0FCFC0
CCCC0C00
CCCC0C00
0F0F0F00
0F0F0F00
0CCC0C00
0CCC0C00
0CCFCFC0
0CCFCFC0
00000000
00000000
00000000
00000000
03F3F000
03F3F000
03033000
03033000
03C30000
03C30000
03033000
03033000
03F3F000
03F3F000
ENDCHAR
STARTCHAR <unknown>
ENCODING 237
SWIDTH 833 0
DWIDTH 30 0
BBX 26 14 2 4
BITMAP
C0003000
C0003000
C0000C00
C0000C00
C0000300
C0000300
FFFFFFC0
FFFFFFC0
C0000300
C0000300
C0000C00
C0000C00
C0003000
C0003000
ENDCHAR
STARTCHAR <unknown>
ENCODING 238
SWIDTH 611 0
DWIDTH 22 0
BBX 20 24 2 0
BITMAP
FF03F0
FF03F0
3300C0
3300C0
3CC0C0
3CC0C0
3CC0C0
3CC0C0
3330C0
3330C0
3330C0
3330C0
30CCC0
30CCC0
30CCC0
30CCC0
3033C0
3033C0
3033C0
3033C0
300CC0
300CC0
FC0FC0
FC0FC0
ENDCHAR
STARTCHAR <unknown>
ENCODING 239
SWIDTH 833 0
DWIDTH 30 0
BBX 26 14 2 4
BITMAP
000C3000
000C3000
00030C00
00030C00
0000C300
0000C300
FFFFFFC0
FFFFFFC0
0000C300
0000C300
00030C00
00030C00
000C3000
000C3000
ENDCHAR
STARTCHAR <unknown>
ENCODING 240
SWIDTH 611 0
DWIDTH 22 0
BBX 18 24 2 0
BITMAP
FFFF00
FFFF00
C303C0
C303C0
C300C0
C300C0
C300C0
C300C0
C300C0
C300C0
C30300
C30300
C33C00
C33C00
C30000
C30000
C30000
C30000
C30000
C30000
C30000
C30000
FFC000
FFC000
ENDCHAR
STARTCHAR <unknown>
ENCODING 241
SWIDTH 555 0
DWIDTH 20 0
BBX 16 30 2 -8
BITMAP
FFFF
FFFF
C000
C000
C000
C000
C000
C000
C000
C000
C000
C000
C000
C000
C000
C000
0000
0000
3FFC
3FFC
3030
3030
00C0
00C0
0300
0300
0C3C
0C3C
3FFC
3FFC
ENDCHAR
STARTCHAR <unknown>
ENCODING 242
SWIDTH 388 0
DWIDTH 14 0
BBX 10 18 2 0
BITMAP
00C0
00C0
03C0
03C0
0CC0
0CC0
30C0
30C0
C0C0
C0C0
30C0
30C0
0CC0
0CC0
03C0
03C0
00C0
00C0
ENDCHAR
STARTCHAR <unknown>
ENCODING 243
SWIDTH 833 0
DWIDTH 30 0
BBX 26 32 2 -8
BITMAP
FFC00000
FFC00000
C0000000
C0000000
FF000000
FF000000
C0000000
C0000000
CF0FCFC0
CF0FCFC0
CCCC0C00
CCCC0C00
0F0F0F00
0F0F0F00
0CCC0C00
0CCC0C00
0CCFCFC0
0CCFCFC0
00000000
00000000
00000000
00000000
03F3F000
03F3F000
03003000
03003000
03C0F000
03C0F000
03003000
03003000
03F3F000
03F3F000
ENDCHAR
STARTCHAR <unknown>
ENCODING 244
SWIDTH 388 0
DWIDTH 14 0
BBX 12 18 2 2
BITMAP
C000
C000
C000
C000
C000
C000
C000
C000
FFF0
FFF0
C000
C000
C000
C000
C000
C000
C000
C000
ENDCHAR
STARTCHAR <unknown>
ENCODING 245
SWIDTH 833 0
DWIDTH 30 0
BBX 26 32 2 -8
BITMAP
FFC00000
FFC00000
C0000000
C0000000
FF000000
FF000000
C0000000
C0000000
CF0FCFC0
CF0FCFC0
CCCC0C00
CCCC0C00
0F0F0F00
0F0F0F00
0CCC0C00
0CCC0C00
0CCFCFC0
0CCFCFC0
00000000
00000000
00000000
00000000
03F3F000
03F3F000
03030000
03030000
03C3F000
03C3F000
03003000
03003000
0303F000
0303F000
ENDCHAR
STARTCHAR <unknown>
ENCODING 246
SWIDTH 833 0
DWIDTH 30 0
BBX 26 32 2 -8
BITMAP
FFC00000
FFC00000
C0000000
C0000000
FF000000
FF000000
C0000000
C0000000
CF0FCFC0
CF0FCFC0
CCCC0C00
CCCC0C00
0F0F0F00
0F0F0F00
0CCC0C00
0CCC0C00
0CCFCFC0
0CCFCFC0
00000000
00000000
00000000
00000000
03F3F000
03F3F000
03030000
03030000
03C3F000
03C3F000
03033000
03033000
0303F000
0303F000
ENDCHAR
STARTCHAR <unknown>
ENCODING 247
SWIDTH 833 0
DWIDTH 30 0
BBX 16 36 14 -10
BITMAP
F000
F000
F000
F000
F000
F000
F000
F000
F000
F000
F000
F000
F000
F000
F000
F000
FFFF
FFFF
FFFF
FFFF
F000
F000
F000
F000
F000
F000
F000
F000
F000
F000
F000
F000
F000
F000
F000
F000
ENDCHAR
STARTCHAR <unknown>
ENCODING 248
SWIDTH 833 0
DWIDTH 30 0
BBX 26 32 2 -8
BITMAP
FFC00000
FFC00000
C0000000
C0000000
FF000000
FF000000
C0000000
C0000000
CF0FCFC0
CF0FCFC0
CCCC0C00
CCCC0C00
0F0F0F00
0F0F0F00
0CCC0C00
0CCC0C00
0CCFCFC0
0CCFCFC0
00000000
00000000
00000000
00000000
03F3F000
03F3F000
03033000
03033000
03C3F000
03C3F000
03033000
03033000
0303F000
0303F000
ENDCHAR
STARTCHAR <unknown>
ENCODING 249
SWIDTH 444 0
DWIDTH 16 0
BBX 8 26 4 -2
BITMAP
C0
C0
C0
C0
F0
F0
F0
F0
CC
CC
C3
C3
C0
C0
C0
C0
C0
C0
C0
C0
C0
C0
C0
C0
C0
C0
ENDCHAR
STARTCHAR <unknown>
ENCODING 250
SWIDTH 500 0
DWIDTH 18 0
BBX 14 24 2 0
BITMAP
FFFC
FFFC
C0CC
C0CC
C0CC
C0CC
0330
0330
0330
0330
0CC0
0CC0
0CC0
0CC0
3300
3300
3300
3300
CC0C
CC0C
CC0C
CC0C
FFFC
FFFC
ENDCHAR
STARTCHAR <unknown>
ENCODING 251
SWIDTH 388 0
DWIDTH 14 0
BBX 10 28 2 -4
BITMAP
FFC0
FFC0
CC00
CC00
CC00
CC00
CC00
CC00
CC00
CC00
CC00
CC00
CC00
CC00
CC00
CC00
CC00
CC00
CC00
CC00
CC00
CC00
CC00
CC00
CC00
CC00
FFC0
FFC0
ENDCHAR
STARTCHAR <unknown>
ENCODING 252
SWIDTH 833 0
DWIDTH 30 0
BBX 30 4 0 6
BITMAP
FFFFFFFC
FFFFFFFC
FFFFFFFC
FFFFFFFC
ENDCHAR
STARTCHAR <unknown>
ENCODING 253
SWIDTH 388 0
DWIDTH 14 0
BBX 10 28 2 -4
BITMAP
FFC0
FFC0
0CC0
0CC0
0CC0
0CC0
0CC0
0CC0
0CC0
0CC0
0CC0
0CC0
0CC0
0CC0
0CC0
0CC0
0CC0
0CC0
0CC0
0CC0
0CC0
0CC0
0CC0
0CC0
0CC0
0CC0
FFC0
FFC0
ENDCHAR
STARTCHAR <unknown>
ENCODING 254
SWIDTH 833 0
DWIDTH 30 0
BBX 26 14 2 4
BITMAP
C00C3000
C00C3000
300C0C00
300C0C00
0C0C0300
0C0C0300
0FFFFFC0
0FFFFFC0
0C0C0300
0C0C0300
300C0C00
300C0C00
C00C3000
C00C3000
ENDCHAR
STARTCHAR <unknown>
ENCODING 255
SWIDTH 833 0
DWIDTH 30 0
BBX 16 20 14 -10
BITMAP
FFFF
FFFF
FFFF
FFFF
F000
F000
F000
F000
F000
F000
F000
F000
F000
F000
F000
F000
F000
F000
F000
F000
ENDCHAR
ENDFONT
